HIERARCHY
ROOT Hips
{
	OFFSET 0.000000 0.000000 0.000000 
	CHANNELS 6 Xposition Yposition Zposition Zrotation Yrotation Xrotation
	JOINT LeftUpLeg
	{
		OFFSET 1.363060 -1.794630 0.839290 
		CHANNELS 3 Zrotation Yrotation Xrotation
		JOINT LeftLeg
		{
			OFFSET 2.448110 -6.726130 0.000000 
			CHANNELS 3 Zrotation Yrotation Xrotation
			JOINT LeftFoot
			{
				OFFSET 2.562200 -7.039590 0.000000 
				CHANNELS 3 Zrotation Yrotation Xrotation
				JOINT LeftToeBase
				{
					OFFSET 0.157640 -0.433110 2.322550 
					CHANNELS 3 Zrotation Yrotation Xrotation
					End Site
					{
						OFFSET 0.000000 0.000000 0.000000 
					}
				}
			}
		}
	}
	JOINT RightUpLeg
	{
		OFFSET -1.305520 -1.794630 0.839290 
		CHANNELS 3 Zrotation Yrotation Xrotation
		JOINT RightLeg
		{
			OFFSET -2.542530 -6.985550 0.000000 
			CHANNELS 3 Zrotation Yrotation Xrotation
			JOINT RightFoot
			{
				OFFSET -2.568260 -7.056230 0.000000 
				CHANNELS 3 Zrotation Yrotation Xrotation
				JOINT RightToeBase
				{
					OFFSET -0.164730 -0.452590 2.363150 
					CHANNELS 3 Zrotation Yrotation Xrotation
					End Site
					{
						OFFSET 0.000000 0.000000 0.000000 
					}
				}
			}
		}
	}
	JOINT Spine
	{
		OFFSET 0.028270 2.035590 -0.193380 
		CHANNELS 3 Zrotation Yrotation Xrotation
		JOINT Spine1
		{
			OFFSET 0.056720 2.048850 -0.042750 
			CHANNELS 3 Zrotation Yrotation Xrotation
			JOINT Neck1
			{
				OFFSET -0.054170 1.746240 0.172020 
				CHANNELS 3 Zrotation Yrotation Xrotation
				JOINT Head
				{
					OFFSET 0.104070 1.761360 -0.123970 
					CHANNELS 3 Zrotation Yrotation Xrotation
					End Site
					{
						OFFSET 0.000000 0.000000 0.000000 
					}
				}
			}
			JOINT LeftArm
			{
				OFFSET 3.362410 1.200890 -0.311210 
				CHANNELS 3 Zrotation Yrotation Xrotation
				JOINT LeftForeArm
				{
					OFFSET 4.983000 -0.000000 -0.000000 
					CHANNELS 3 Zrotation Yrotation Xrotation
					JOINT LeftHand
					{
						OFFSET 3.483560 -0.000000 -0.000000 
						CHANNELS 3 Zrotation Yrotation Xrotation
						JOINT LeftHandIndex1
						{
							OFFSET 0.715260 -0.000000 -0.000000 
							CHANNELS 3 Zrotation Yrotation Xrotation
							End Site
							{
								OFFSET 0.000000 0.000000 0.000000 
							}
						}
					}
				}
			}
			JOINT RightArm
			{
				OFFSET -3.136600 1.374050 -0.404650 
				CHANNELS 3 Zrotation Yrotation Xrotation
				JOINT RightForeArm
				{
					OFFSET -5.241900 -0.000000 -0.000000 
					CHANNELS 3 Zrotation Yrotation Xrotation
					JOINT RightHand
					{
						OFFSET -3.444170 -0.000000 -0.000000 
						CHANNELS 3 Zrotation Yrotation Xrotation
						JOINT RightHandIndex1
						{
							OFFSET -0.622530 -0.000000 -0.000000 
							CHANNELS 3 Zrotation Yrotation Xrotation
							End Site
							{
								OFFSET 0.000000 0.000000 0.000000 
							}
						}
					}
				}
			}
		}
	}
}
MOTION
Frames: 6
Frame Time: 0.041667
-24.484331 23.662416 0.121924 -126.457836 -82.218147 76.680081 -8.094242 -9.356513 -21.320347 -0.043372 10.578341 26.086214 -2.244539 18.057735 34.422987 1.500000 -7.736100 -21.915200 22.711468 12.795677 -18.833914 0.962958 -9.541166 26.164625 3.133516 -14.844005 24.572140 -1.995300 -8.856200 25.346600 1.340029 1.900007 -2.965238 -1.597933 1.427802 -2.901717 4.489837 -0.645292 21.647649 5.602500 -3.709900 8.342100 49.534408 -12.753267 -105.681842 5.100816 -20.848862 -4.671441 2.067713 -8.765080 19.601982 -7.125000 0.000000 0.000000 -38.219198 4.317512 -87.403245 -6.801801 19.004492 -8.182962 -3.481370 -0.763646 -14.084771 7.125000 0.000000 0.000000 
-24.513859 23.598953 0.109898 -126.302290 -81.817338 76.484365 -7.919752 -9.174885 -21.139578 0.026421 10.624219 26.298099 -2.285567 18.013923 34.222945 1.587800 -7.948800 -22.558600 23.203722 12.508930 -18.583083 0.970160 -9.517843 26.271412 2.964885 -14.451292 24.739737 -1.085200 -6.621000 18.597300 1.355406 1.864951 -2.984619 -1.547876 1.390447 -3.136256 4.439505 -0.727352 21.613988 5.626400 -3.787600 8.368900 49.375757 -12.530758 -105.812013 4.758743 -20.441295 -4.468296 2.018753 -8.687397 20.012761 -7.125000 0.000000 0.000000 -38.150463 4.191599 -86.796958 -6.843150 18.940481 -8.124150 -3.318914 -0.682731 -14.544998 7.125000 0.000000 0.000000 
-24.531243 23.540015 0.109541 -126.795252 -81.357523 77.138908 -7.680982 -9.076193 -21.070350 0.126397 10.700909 26.543340 -2.522326 18.212456 33.551640 1.789400 -8.412800 -23.975200 23.608463 12.501457 -18.426711 1.054265 -9.445005 26.312261 2.695756 -13.552288 24.330562 -1.670300 -8.142500 23.147900 1.356417 1.888242 -2.986687 -1.835036 1.386102 -3.206405 4.407253 -0.809947 21.595574 5.647300 -3.841500 8.325800 49.684827 -12.572623 -106.720652 4.280073 -19.996298 -4.168410 1.835401 -8.510209 20.965961 -7.125000 0.000000 0.000000 -37.885680 4.071037 -86.012749 -6.946527 18.861988 -8.174412 -3.238778 -0.711872 -14.977045 7.125000 0.000000 0.000000 
-24.529219 23.489412 0.101445 -125.819035 -82.427027 76.658771 -8.813305 -9.150095 -21.111086 0.133053 10.753631 26.825633 -2.998625 18.608852 32.172099 1.719400 -8.255400 -23.492500 22.130147 13.491772 -18.227800 0.968774 -9.469345 26.109880 3.192640 -14.759189 24.139342 -2.101700 -9.074800 26.029400 1.315147 1.954037 -3.000667 -1.895307 1.442261 -3.261814 4.433924 -0.944936 21.613331 5.641900 -3.910500 8.295800 50.251654 -12.998735 -108.460054 3.743292 -19.613922 -3.887943 1.521291 -8.290736 22.939430 -7.125000 0.000000 0.000000 -37.668750 4.137920 -86.035039 -6.748267 18.585194 -7.968738 -3.173257 -1.127249 -14.379882 7.125000 0.000000 0.000000 
-24.511359 23.428212 0.083942 -124.491817 -83.161749 75.491573 -9.623789 -9.077884 -20.912753 0.073444 10.703870 26.886712 -3.036769 18.489443 31.851347 1.317700 -7.270400 -20.519100 21.224274 14.047616 -17.903401 0.770402 -9.587745 26.146305 3.731518 -16.324841 24.550793 -0.794100 -5.688300 15.882700 1.271766 1.958222 -3.027635 -1.651726 1.462544 -3.556158 4.375317 -1.016488 21.614369 5.619300 -3.972100 8.289400 49.164550 -12.255761 -105.358324 4.136454 -19.677004 -4.045359 1.841140 -8.459921 20.618342 -7.125000 0.000000 0.000000 -38.072687 3.936104 -87.162307 -5.856148 17.910374 -7.076703 -3.120561 -1.789822 -13.795962 7.125000 0.000000 0.000000 
-24.489212 23.352486 0.064415 -126.478030 -82.481429 77.260868 -9.013541 -8.658361 -20.625215 0.122998 10.692088 26.907124 -2.821923 18.283052 32.475490 1.100500 -6.665800 -18.728900 22.189143 13.604084 -17.575617 0.736867 -9.613653 26.431214 3.579152 -15.975312 24.676158 -0.542400 -4.718400 13.107100 1.321852 1.967603 -3.027195 -1.378335 1.434405 -3.873126 4.329200 -1.087843 21.536564 5.575500 -4.004400 8.171300 50.068598 -12.550935 -110.955823 2.032390 -17.550498 -2.975572 1.085894 -7.799217 25.319799 -7.125000 0.000000 0.000000 -37.734360 4.228283 -85.715700 -6.430380 18.341213 -7.567633 -3.052042 -1.828500 -14.117461 7.125000 0.000000 0.000000 
